<?xml version="1.0" encoding="UTF-8"?>
<svg version="1.1" viewBox="0 0 900 900" width="225" height="225" xmlns="http://www.w3.org/2000/svg">
<path transform="translate(0)" d="m0 0h900v900h-900z" fill="#FCFCFD"/>
<path transform="translate(456,25)" d="m0 0 9 1 9 6 4 4h18l9 5 7 8 4-1 1-1h9l12 6 4 5 2 3 2 8 8-1 8 3 8 7 6 12 1 5 6 1 9 6 7 8 2 4 1 10 11 6 9 8 4 8v8l-2 6 5 3 8 6 5 6 3 7 1 9-2 6v5l8 9 5 10 2 8-1 7-4 6h-2v5l4 2 7 7 3 6v19l-3 6-1 5 7 11 3 11-1 7-3 11-6 9-2 1 1 5 6 7 5 10 4 18-4 13-7 9 1 5 6 11 1 4v15l-3 7-7 6-10 2 3 12-1 9-4 6-5 6-2 29 16 5 2 1 26 1 9 4 8 7 6 9 4 10 1 5v13l-3 7 1 6 2 5v14l-3 12 9-1 14-6 8-7 4-12h3l1 2v23l-4 16-6 17-10 22-10 17-10 14-14 17-9 10-11 11-10 8-13 10-13 8-14 8-20 9-18 7-13 4-17 5-8 2-7 2-10 2-19 3-6 3-4 5-6 2-7 2-5 4-11 7-8 3-7 6-7 9-2 10-4 13-3 7-2-3-4-9-3-5-3-12-9-10-2-2-3-7-10-5-2-4-3-1-3-4-11 1-5-5-6-4-25-6-32-7-30-10-25-12-14-8-15-10-9-7-15-14-11-9-6-5-10-13-9-11-10-15-9-17-7-20-6-18v-37l2-3h2l3 9 7 8 8 6 10 4 10 1 3-1 1-4v-9l-9-17-1-4v-20l6-14 7-9 5-5 8-6 12-4h15l4 2 7-1 8-4 7-2 4-3v-6l-9-3-6-4-7-6-6-10-2-4-1-13-8-5-8-13-1-4v-9l2-10 6-11 3-5-2-5-5-10-1-12 3-12 7-13 4-5v-5l-9-14v-10l3-10 12-16 2-2-1-4-6-10v-14l5-10 7-8 6-2-4-7-3-5v-13l4-9 4-6 10-7 2-1-1-4-2-5v-12l3-7 5-5 8-6 9-4 1-5v-9l4-9 8-7 9-4v-7l4-10 9-9 7-3 5-1 2-9 7-10 9-5 11-1 6-12 9-6 5-2h8l8 2 4-8 8-6 6-3h11l9 5 2-4 9-6z" fill="#0C18BA"/>
<path transform="translate(151,600)" d="m0 0 5 3 7 7 12 6 19 5 8 5 4 4v2l4-2 7-8 8-6 5-2h17l10 4 7 5 1 8 1 6 6 10 8 7 13 10 12 7 27 12 31 11 25 6 30 5 23 2h26l26-2 29-5 21-6 24-9 29-14 15-10 11-11 4-6v-7l-2-6 3-5 8-5 13-4 6-1 14 3 10 5 6 5v2l6-1 16-8 20-4 10-4 10-9h2l-2 9-2 12-8 20-13 26-7 11-12 17-12 14-5 6h-2l-2 4-8 8-11 9-17 13-15 9-27 13-27 10-26 8-36 8-19 3-25 2h-44l-27-2-21-3-43-10-24-7-28-11-21-10-18-12-16-13-8-7-5-4v-2l-4-2-12-12v-2h-2l-11-14-8-10-8-13-8-15-8-22-3-13-1-13-1-3z" fill="#FCFCFD"/>
<path transform="translate(453,143)" d="m0 0 2 1-1 9-6 16-14 30-8 20-7 20-2 10v20l4 11 6 9 10 7 8 3 7 2-1 6v8l-1 9-2 11-10 31-8 16v3l7 2v-6l2-2h3l-3-8-1-3 2-4 4 2 4 7v6l-4 4-2 8-3-1-4 14-6 12-5 1-2 4-3 5-4 1-1-1v-8l6-11 8-8 2-4v-5l-3-1-11 16-4 2-2 4-8 9-7 8-2 3-5-1-7-6-13-5-16-6h-5l-1 5-14 11-6 5h-6l1-5 7-7 13-8 1-1-14-2h-12l-11 2-4 1-10 1-10 6-13 10-8 7-3 5v5l3 4-1 5-5 6v9l9 10 9 7 4 2h12l5-3 4-1 2 2 8 1v3l-5 5-10 6-7 8-6 10-2 7 3-2 1-6h3l8 15 8 8v5l-2 4h6v9l2 3v3l-13-1-8-3-5-5-4-10 1-5 4 2 8 9 4 3h4l-2-5-6-8-6-7-1-4-5 1-5 12 1 6 4 8 4 16 4 6 1 3 4 2 12 16v2l6 2 3 2-5-10-6-10v-2l9 1 3 1h12l7 6 1 6h8l3 1-1 4-9 2-6-1-2-1-9 1 5 5 9 6 28 7 13 1 14 2 2-4 9-10 3-3 5 1-1 4-9 8-2 5 14 1 18-3h7l15-4 16-2 13-4 12-2 6-3h17l13-3 36 2 15 5 8 5 10 10-1 7-5 6-4 1 6 7 4 2h6l5-3 6-8 2-4v-8l-2-4-2-10-9-10-4-4v-2l-6-2-10-5-10-2-12-1-46-2-7-4-8-8v-2l-16 9-13 3h-10l-9-4-7-6-6-10-1-2v-9l6-9 8-6 2-1h11l7 4 2 4v3l6-3 1-2v-9l-3-12-1-9v-19l4-23 4-16-12-4h-16l-11 6-5 6 1 5 4 9 1 10 4 4 8 6 3 5v7l-3 4-9 2-10 6-1 13-4 10-9 17-8 10-13 10-10 5-3 1h-16l-11-4-9-6-7-8-7-14-2-8-2-16-3-8-5-2-5 3-5 8-1 4v8l4 15 4 8 8 10 14 9 14 5 22 4 8 1h21l24-2 25-4 17-4 18-5 5 1 1 5-6 2-9 2-17 2-11 5-15 2-4 1-24 2h-25l-16-2 4 1 1 6-8 7-7 1-11-1 1-4 10-6 5-4-6-2-18-5-8-5-11-8-5-5-6-8-6-16-1-8 1-10 9-15 5-5 8-3-1-4-6 1v-4l4-4h2l1-3 3-2-6 1v2l-6 4-4 9-5 8-4 5-4-1-2-3-2-15-2-1 1-4 6-5 8-2 5 3 5-2 5-5h8l5 5-7 7-1 2 9-6h6l2 3-13 7-2 3v3l4-1 8-9h6l8 6 2 3v7l-2 2h-9l-12-3-1 1 1 9 3 8v13l6 14 6 8 5 4 9 4 4 1h13l10-4 10-7 8-8 5-9 5-14 5-11-1-7-5-5-7-8v-5l4 2 7 9 2 4 4-1 10-6 8-3 1-3-5-5-3-2-8-1-2-18-3-9-1-1v-6l12-16 20-4 1-4 6-8 8-8 3-1h8l-1 4-7 6-7 8-2 2-5 1h12l7 5 3 1 1 6-4 14-5 21v27l3 15 2 9-3 5-10 10-3 1-1 6 4-1 2 1-1 7-7 6h-6l-6-7 2-4 7-6 3-1-3-9-4-5h-7l-9 6-2 3v9l6 9 6 5 4 2h13l5-3 2-5v-12l6-9 4 1 4 8-1 5-12 13v1l7-3 6-5 3-5 5 4 5 7 8 4 17 2 9-1 11-7 10-8 4-5 2-6v-20l-4-11v-9l3-5 15-5 4-2 7 6v5l-4-1-2-2-9 1-5 5-1 2 1 9 2 10v14l-3 10-5 8-8 7-6 4 3 1h8l17 3 11 5 11 8 8 7 7 8 2 4 1 9v11l-4 9-9 10-4 2h-11l-9-5-7-8v-4l7-1 3-1 1-7-4-6-8-5-13-4-7-1h-28l-25 4-40 9-34 6-27 2-27-1-24-4-18-6-12-5-11-7-16-13-9-9-8-14-6-16-1-12v-16l4-13 5-10 4-5 7-6 2-3h-13l-13-3-9-7-6-7-3-10v-16l5-13 8-10 9-9 14-10 8-4 15-5 12-2h19l18 3 21 7 16 8 5-1 5-5 12-15 9-15 8-15 8-19 9-27 2-11v-4l-5-3-10-4-9-7-6-8-5-10-3-14v-14l4-15 5-13 6-16 13-27 4-9 5-11 4-12z" fill="#FBFBFC"/>
<path transform="translate(151,600)" d="m0 0 5 3 7 7 12 6 19 5 8 5 4 4v2l4-2 7-8 8-6 5-2h17l10 4 7 5 1 8 1 6 6 10 8 7 13 10 12 7 27 12 31 11 25 6 30 5 23 2h26l26-2 29-5 21-6 24-9 29-14 15-10 11-11 4-6v-7l-2-6 3-5 8-5 13-4 6-1 14 3 10 5 6 5v2l6-1 16-8 20-4 10-4 10-9h2l-2 9-2 12-8 20-13 26-7 11-12 17-12 14-5 6h-2l-2 4-8 8-11 9-17 13-15 9-27 13-27 10-26 8-36 8-19 3-25 2h-44l-27-2-21-3-43-10-24-7-28-11-21-10-18-12-16-13-8-7-5-4v-2l-4-2-12-12v-2h-2l-11-14-8-10-8-13-8-15-8-22-3-13-1-13-1-3zm9 18v7l4 13 6 15 8 16 8 14 10 13 9 10 7 8 8 7 8 8 16 12 21 14 25 13 20 8 28 9 32 8 33 5 20 2 19 1h25l29-2 26-4 30-7 20-6 27-10 16-7 19-10 15-10 10-8 14-12 12-12 7-8 10-12 10-15 10-17 8-16 9-20 1-4-7 2-7 3-20 5-10 4-7 6h-3l-6-8-9-6-12-4h-13l-10 4-5 4 2 5v7l-3 6-8 10-1 3-4 2-10 8-17 10-29 13-24 9-23 6-26 4-12 1h-44l-29-3-24-5-24-7-22-8-24-11-16-10-14-10-10-9-6-8-2-6-1-10-6-5-10-3h-8l-13 5-8 7-5 8-4-1-2-4-7-5-19-5-13-5z" fill="#FCFCFD"/>
<path transform="translate(160,618)" d="m0 0 7 3 11 4 19 5 9 7v2l4 1 7-10 8-6 11-4h8l10 3 6 5 2 13 4 8 10 10 17 12 13 8 16 8 16 7 33 11 21 5 27 4 13 1h44l27-3 23-5 16-5 21-8 29-13 15-9 10-8 4-2 2-4 9-12 1-3v-7l-2-5 9-6 6-2h13l12 4 9 6 6 8 4-1 8-6 11-4 21-5 8-4 2 1-7 17-9 19-10 17-13 19-11 13-14 15-7 7-11 9-13 10-13 8-17 9-29 12-27 9-28 7-14 3-21 3-29 2h-25l-30-2-37-5-30-7-26-8-22-8-27-13-16-10-11-8-16-12-9-9-6-5-7-8-7-7-12-16-10-18-8-16-7-20-1-4zm81 8-12 3-7 4-8 10-1 7v7l-4-4-3-9-6-5-8-4-18-5-6-2 1 7 10 23 9 17 10 14 13 15 14 14 11 9 10 8 15 10 24 14 23 10 24 8h5l2-6v-3l11 3-3 7v3l14 4 26 5 34 4 19 1 1-3 1-6 3-3h7l3 1-2 6-1 4 1 1 26-1 27-3 39-8 24-7 25-9 23-10 16-9 16-11 9-8v-2l-4-4v-3l2-1v-3l9 1 3 3 3-2v-2l4-2 7-8 9-10 13-18 12-21 11-21v-3l-8 1-16 5-7 4-7 8-2 4h-3l-1-9-6-8-10-6-10-3h-11l-6 3-1 1 1 10v2l-6 9-8 10-9 9-19 12-23 11-28 11-20 6-25 5-27 3h-40l-27-2-28-5-27-8-23-8-16-7-15-8h-3l2 5v5l-4 2-7 1-6-7 1-5 4-3 5-2-4-5-13-9-12-11-6-9-2-9-1-6-4-3z" fill="#0C18BA"/>
<path transform="translate(456,152)" d="m0 0 4 4 5 11 8 16 11 19 7 14 6 18 1 8v24l-4 12-7 12-5 5-7 6-10 6h-2l2 7v29l-2 13-1 2-2 15-4 14-5 12-5 13v2l7-2 15-1 18 2 11 4 11 7 4-2 8-6 10-5 16-4h18l18 3 13 4 11 6 13 11 9 13 6 16 3 16v28l-3 23-6 22-8 20-6 9-8 9-7 4-9 1-2-1-4-15v-17l8-26 4-14 1-6v-19l-4-16-8-16-9-9-8-4-12-2-14 3-10 5-3 4 2 9 2 14-1 17-6 29-4 14v7l5 5 5-2 2-3 1-17v-9l5 4 3 9-3 5 1 10-2 5-8 6-6 1-4-6-8-8 1-6 4-8 4-18 1-9v-9l1-3v-18l-1-11v-12l4-5 11-6 14-3h3l-1-6 7-13 2-1h6l-1 4-8 9-3 6 6-2 2-4h2l2-4 7-4 4-1h9v4l-9 6-6 5h-2v2l7 2 8 8 12 16 6 13-2 8 2 8v6l-2 7v13l-8 26-4 10v10l3 14 7-1 8-9 8-16 5-12 5-20 1-12 2-10-1-7-1-1 1-16-3-9-1-13-7-8-5-3-2-11-5-5-14-8-7-2-13-2-4-2h-13l-17 1-8 4-10 4-4 3h-2l-2 4-5-2-4-3-12-4-5-3-4-1h-24l-9 2-8 4-10 1-2-4 6-7h2l2-5 10-22 5-8v-10l2-5h2l1-12-2-3 2-12-5-1-2-1-1-4 1-2 7 2-1-6 1-2-6-1-1-3 6-5-2-4-1-4v-7l13-5 8-6h2l2-4 7-11 3-8 1-6v-9l-3-16-10-25-8-16-6-13-7-17-2-6v-5z" fill="#FCFCFD"/>
<path transform="translate(497,282)" d="m0 0 5 2 13 10 12 10 13 10 8 6 17 13 17 14 12 9 14 11 17 14 18 14 14 12 5 5 4 11v16l-3 5-6 3h-13l-8-7-34-34-7-8-6-6v-2l-4-2v-2l-3-1-7-8-9-9-7-8-11-11-7-8-8-8-7-8-16-16-9-11-8-7 2-6z" fill="#FCFCFD"/>
<path transform="translate(403,263)" d="m0 0 4 1 1 6-4 5-11 8-13 10-18 14-14 11-28 21-16 13-19 14-11 9-9 7-14 11-13 10-5 1-5-10-1-4v-14l5-12 7-10 9-8 21-12 25-13 22-12 30-16 18-10 17-9 11-6z" fill="#FCFCFD"/>
<path transform="translate(407,278)" d="m0 0 3 1 1 8-7 6-7 8-23 23-3 4h-2l-2 4-18 18-7 8-14 14-7 8-17 17-10 4-18 7-9 5-10 9h-2l-2 4-8 10-6 12-4 11-6-4-5-12v-15l5-10 5-6 15-11 11-10 13-10 16-12 10-8 16-12 18-14 15-12 11-8 21-16 14-11z" fill="#FCFCFD"/>
<path transform="translate(501,268)" d="m0 0 5 1 24 13 17 9 14 7 22 12 29 15 25 13 11 6 9 6 7 10 4 11 1 5v11l-3 8-5 6-4-1v-2l-5-2-8-7-17-13-16-13-14-11-16-13-20-15-19-14-32-26-9-6z" fill="#FCFCFD"/>
<path transform="translate(504,253)" d="m0 0 30 8 49 14 56 15 17 5 6 7 4 12-1 12-5 10-4 4-7-1-12-6-19-10-16-8-28-15-14-8-54-27-2-3z" fill="#FCFCFD"/>
<path transform="translate(402,250)" d="m0 0 5 1-2 6-16 8-23 12-28 15-27 14-22 12-27 14-17 10-3 2h-3l-6-10-1-7 2-11 7-11 9-10 8-4 21-6 26-7 33-10 25-7 27-8z" fill="#FCFCFD"/>
<path transform="translate(396,236)" d="m0 0h13l-1 7-8 3-42 12-53 15-43 12-13 5-4-2-4-11 1-9 6-10 9-9 6-2 29-3 65-5 28-2z" fill="#FCFCFD"/>
<path transform="translate(507,238)" d="m0 0 33 2 32 3 57 4 18 2 6 3 6 8 2 6v13l-4 8-4 1-30-7-36-10-72-19-10-3-2-2v-8z" fill="#FCFCFD"/>
<path transform="translate(271,203)" d="m0 0h11l89 13 39 5 2 1v7l-2 2-70 5-73 5h-10l-4-6-1-8 2-8 4-6 4-5z" fill="#FCFCFD"/>
<path transform="translate(616,165)" d="m0 0h6l8 5 6 5 3 7v15l-3 3-21 4-32 5-71 8-12 3-4-1-3-9 8-4 14-5 12-5 16-6 29-10 40-14z" fill="#FCFCFD"/>
<path transform="translate(630,206)" d="m0 0h9l6 4 6 8 2 6v11l-6 8-20-1-34-2-42-3-50-4-2-4v-5l23-4 81-10z" fill="#FCFCFD"/>
<path transform="translate(290,161)" d="m0 0 11 3 18 7 29 11 41 16 20 8 9 4-1 6-5 1-49-7-64-10-24-3-5-5-1-3v-9l5-8 7-6z" fill="#FCFCFD"/>
<path transform="translate(311,127)" d="m0 0 9 1 16 10 20 14 18 12 13 9 11 8 18 13 6 4v6l-1 1-7-1-21-9-68-27-27-10-3-3v-9l2-8 4-5z" fill="#FCFCFD"/>
<path transform="translate(392,436)" d="m0 0 4 1v15l-5 8-4 4h-2l-2 5 5-1 7 7-1 7-4 10 1 8 4 7 7 7 4 6-1 6-9 17-4 5-5 5-6 3h-5l-4-4-1-15-3-18-6-11-11-12-7-3-5-3 1-4 4-3h14l12-6 10-7h2v-2h-2v-17l5-9z" fill="#FCFCFD"/>
<path transform="translate(600,129)" d="m0 0 5 1 6 4 8 9 1 3v11l-6 4-32 11-30 11-34 12-20 8-7 3-3-3-2-4v-3l8-3 15-9 46-27 29-17 11-7z" fill="#FCFCFD"/>
<path transform="translate(642,537)" d="m0 0 7 1 9 9 5-1 5-3h11l5 3 5 5 3 4 2 10-2 9-4 9 6 11v7l-4 10-2 3h-2l-2 4-3 1-7-3-5-2-6-1 2-5 7-10 2-7v-9l-4-9-5-6-6-3h-10l-9 5-3 5v7l4 5 3 1-1-13 5 1 6 5 1 2v7l-6 7-6 3-9-1-11-8-2-5 10-19 9-27z" fill="#FCFCFD"/>
<path transform="translate(577,99)" d="m0 0 5 2 10 8 3 5 1 4v7l-5 5-13 8-17 10-43 25-19 12-15 10-4-6-1-4 13-10 8-8 11-9 14-13 11-9 9-9 11-9 12-11 8-7z" fill="#FCFCFD"/>
<path transform="translate(551,74)" d="m0 0 7 2 9 8 3 5 1 8-6 7-11 9-13 12-8 7-10 9-8 7-11 10-8 7-13 12-4 4-4-1-2-4v-6l10-11 22-28 13-18 13-17 11-14 6-7z" fill="#FCFCFD"/>
<path transform="translate(360,72)" d="m0 0 7 1 7 8 18 27 7 11 10 14 10 15 10 14 6 8-3 9-2 2-29-29v-2l-4-2-46-46-6-5-4-8 4-8 7-6z" fill="#FCFCFD"/>
<path transform="translate(334,98)" d="m0 0 5 1 9 7 7 6 39 39 2 1v2l4 2 17 17v2l4 2 7 7-1 7-3 3-11-7-15-12-20-14-13-9-12-8-16-11-14-9-5-4-1-5 4-8 8-7z" fill="#FCFCFD"/>
<path transform="translate(517,53)" d="m0 0 10 1 8 5 4 5 1 2v9l-10 14-8 10-28 38-12 15-10 15h-3l-3-8 1-5 11-23 11-24 16-35 8-16z" fill="#FCFCFD"/>
<path transform="translate(412,291)" d="m0 0 5 1 2 6-13 19-8 11-11 18-13 18-14 20-8 12-1 1-24-1h-15l6-7 42-42 7-8 8-8 7-8 9-9 7-8 11-11z" fill="#FCFCFD"/>
<path transform="translate(385,53)" d="m0 0h9l8 4 4 6 13 35 7 20 11 28 4 8v10l-3 3-7-9-30-45-11-16-10-15-9-14 3-7 8-7z" fill="#FCFCFD"/>
<path transform="translate(489,294)" d="m0 0 3 1 7 8 13 14v2l3 1 7 8 2 4 4 2v2l3 1 7 8 13 13 7 8 11 12 16 17 6 5 1 5-14-5-7-1-18-1-3-1-11-16-13-19-12-17-26-39-3-4 1-4z" fill="#FCFCFD"/>
<path transform="translate(478,304)" d="m0 0 4 1 9 14 11 16 18 27 13 19 11 16-1 3-19 4-8 4-4-1-5-11-8-20-15-36-11-27-1-4z" fill="#FCFCFD"/>
<path transform="translate(422,302)" d="m0 0 4 1 4 3v6l-14 29-11 23-8 17-14 28-7-1-12-5-7-3 1-4 12-17 29-43 22-33z" fill="#FCFCFD"/>
<path transform="translate(420,38)" d="m0 0h9l6 4 2 6 3 27 5 43 3 17v9l-3 8-3 1-5-17-6-15-6-17-7-19-8-23-3-7v-7l7-7z" fill="#FCFCFD"/>
<path transform="translate(455,30)" d="m0 0 6 1 9 5 3 4v9l-7 40-6 31-4 10h-4l-2-6-3-21-1-15-3-25-2-20 4-6 7-6z" fill="#FCFCFD"/>
<path transform="translate(485,40)" d="m0 0h7l9 4 6 7v6l-7 15-6 12-10 22-13 30-9 17h-2l-1-7 3-17 5-21 10-53 2-12 2-2z" fill="#FCFCFD"/>
<path transform="translate(255,538)" d="m0 0 4 1 1 1 2 16 1 5-3 1-8-4h-6l-9 5-6 7-3 8 1 13 6 10 4 4v2l-14 2-7 3h-5l1-5 5-8-1-5-7-7-4-7-2-7v-13l4-9 5-6 10-5h7l9 4 3 2 5-1z" fill="#FCFCFD"/>
<path transform="translate(451,174)" d="m0 0 3 1-1 8 9 11 1 9-5 6-6 5 2 5 11 10 9 1 1 2-2 3-6 1-13-5h-7l-6 6v5h11l9 6 6 8 4 7 9 5v4l-3 1-10-3-9-12-5-5-4-1-11 4-4 6v7l6 8 8 2-1-5-4-5 2-5 2-1h6l5 4 2 4v6l-6 8-6 3-10-1-6-4-6-7-2-6v-10l3-7 5-6 5-4-3-5v-6l3-6 5-4 5-2-4-7 1-5 11-8-3-7-4-8v-6z" fill="#FCFCFD"/>
<path transform="translate(321,414)" d="m0 0 5 1-2 5-9 13v3l7 3h6l3-1 2-4 7-7 10-8 5 1-2 4-8 6-6 5h-2l1 2 23 8 5 4v3l-5 2-7 6-5 5-8 16-6 7-6-1-5-3 1-5 11-12 9-7 4-5 5-3v-2l-15-4-8-2h-13l-11 2-12 8 1 5 9 3h17l14-5 9-1-1 3-10 6-5 2h-11l-3 2-10-1-3-1-11 1-4-4-3-7 1-5 10-8 9-4h3v-3l-7-1-1-1v-7l2-7 6-5 9-1z" fill="#FAFAFC"/>
<path transform="translate(557,724)" d="m0 0 6 1 5 6 8 25v3l-6 3h-5l-6-24-2-5-4 1-8 5h-2l7 27v2l-7 3h-4l-6-17-9 3-3 3-1 4h6l4-1 2 4v5l-4 2h-9l-8-7-2-4 1-6 6-5 13-6h2l-1-6-10-1-4 4-3 6-7 1-1-1v-8l3-6 5-3 15-2 4-3 6-1 2 1 1 6 6-3 4-4z" fill="#0C18BA"/>
<path transform="translate(456,152)" d="m0 0 4 4 5 11 8 16 11 19 7 14 6 18 1 8v24l-4 12-7 12-5 5-7 6-10 6h-2l2 7v29l-2 13-1 2h-2l-2-6-1-5 2-9-5-1-2-1-1-4 1-2 7 2-1-6 1-2-6-1-1-3 6-5-2-4-1-4v-7l13-5 8-6h2l2-4 7-11 3-8 1-6v-9l-3-16-10-25-8-16-6-13-7-17-2-6v-5z" fill="#FBFBFC"/>
<path transform="translate(487,633)" d="m0 0h9l4 2-1 5-3 2-1 4 9-1 6-4 8-8 3 1-1 6-8 10-5 4-20 3-10 6-4 8 1 6 5 6 3 1h8l6-3 1-1-11-4-2-2v-6l5-5 6-2 5 1-1 6v4l5 3 9 2 5 4 1 6h-5l-4-3h-5l-14 7-4 1h-8l-9-3-7-6-3-5-1-8 5-9 9-10 9-3-2-5v-5l4-4z" fill="#FCFCFD"/>
<path transform="translate(330,634)" d="m0 0 9 2 6 4 2 3 3 21 6 7 9 4h12l6-4 5-6v-6l-4-1-3 3-5-1-5-6-6-1-1 4v2l6 2 1 5-5 2-9-2-3-4-1-7 2-5 6-5 7-1 6 3 4 6h3l2-4 2-2h7l6 7 1 3v8l-3 10-7 8-9 4h-8l-12-3-8-5-5-5-5-9-6-17-5-5-6 2-5 2-1-4 4-5z" fill="#FCFCFD"/>
<path transform="translate(642,524)" d="m0 0 11 1 10 4 9-1h13l10 4 8 8 5 12 1 5v15l-3 10 4 7 1 9-4 16-5 4-12 6h-4l2-5 5-5 3-4 2-7v-11l-3-7v-6l3-9 1-8-4-11-6-8-10-5-9-1-7 3h-5l-7-6-10-2z" fill="#FCFCFD"/>
<path transform="translate(467,639)" d="m0 0h3l1 4-4 7-5 6-5 3h-8l-7-2h-14l-10 4-4 5-1 6 2 5 5 4 5 2 7-1 1-2-4-2-4-4-1-7 4-3 7-2 7 1 2 4-5 3-4 1 2 5 2 1 13 1 8 9v3l-5-1-5-3-8 1-13 4-5 1h-8l-8-4-6-9 1-12 5-10 8-6 8-3 35-1 5-5z" fill="#FCFCFD"/>
<path transform="translate(384,478)" d="m0 0 2 1-1 8v12l6 12 8 10-1 7-6 12-6 6h-6l-3-3-1-3-1-15-5-17-6-8-9-8 2-2 11-3 8-4z" fill="#0C18BA"/>
<path transform="translate(478,734)" d="m0 0h8l1 2 3 30v11l-5 2h-6l-1-1-1-15-1-2-5 1-7 3-1 4v2l5-1 3-1 2 3-1 7-4 2h-7l-5-3-4-6-2-8 3-5 5-3 12-3 2-1v-6l-6-1-5 3-6 5-4 1-1-1v-7l3-6 2-2 4-1 16-1z" fill="#0C18BA"/>
<path transform="translate(260,524)" d="m0 0 3 2-2 6-10 4h-3l-1 4-6-1-8-4h-8l-9 3-8 6-4 5-3 7-1 5v15l6 12 8 8-1 5-2 2-2 9 1 9-4 1-6-7 1-9 3-5-1-5-7-9-4-9-1-10 2-13 5-10 8-10 8-6 9-3h11l7 3 6 4 2-4 4-3z" fill="#FCFCFD"/>
<path transform="translate(364,730)" d="m0 0 8 1 16 5v8l-3 4-6 3-1 4 3 7 5 5h3l3-12 3-16 2-2h7l1 4-2 13-1 12-4 8-3 2h-7l-7-3-1-3h-2v-2l-3 1-2 4-9-1-2-1 1-8 4-14 5-8-7-1-1-2z" fill="#0C18BA"/>
<path transform="translate(298,709)" d="m0 0h7l8 4 6 2v-2l7 1 3 3-1 6-11 21-5 11-5-1-6-3 1-5 5-7 1-4-12-2-2 1 1 3 3 3-2 7-3 1-7-4-6-7 1-5 5-5 8-1 20 2-4-8-3-2h-5l-4 4-7-1-2-1 1-5z" fill="#0C18BA"/>
<path transform="translate(436,735)" d="m0 0 6 1 1 1 1 18v22l-4 4h-6l-1-9v-8l-13 2v5l6 2 1 5-1 2h-10l-6-5-1-2v-7l4-5 9-4 9-1-1-7-5-3h-5l-2 6-3 2-5-1-2-6 4-7 2-2h18z" fill="#0C18BA"/>
<path transform="translate(296,418)" d="m0 0 1 3-2 20-5 3-7 5-6-2v-2l-4-2-3-3-1 6 10 8 1 6-3 5-6 2h-8l2 4 9-1 5-3 7 1v5l-14 7-6-1-10-9v-3l4-1 1-5 3-3-1-4-3-6 1-7 4-4 8-1 2 1 4-9 5-6z" fill="#F0F1F9"/>
<path transform="translate(660,660)" d="m0 0h8l9 7 7 7 4 5-1 4-6 5-3-1-8-10-8-7-6 1-5 5-1 6 4 1 5-7 5 1 3 3-1 4-5 5 4 8 3 4-2 4-3 3-6-1-7-8-8-11-1-2v-10l3-6 10-8z" fill="#0C18BA"/>
<path transform="translate(534,639)" d="m0 0 13 1 8 4 5 6 2 4v10l-4 10-6 7-8 4h-4l2-4 8-7 3-6v-10l-4-6-6-3h-9l-6 4-3 5 1 6 5 1 2-7 2-2 6 1 3 3v7l-8 6-4 2-7-1-7-7-2-4v-7l6-10 6-5z" fill="#FCFCFD"/>
<path transform="translate(628,690)" d="m0 0h7l3 2v2h2l11 14 4 4v4h-3v2l-5 3-4-2-10-16-5-4h-6l-4 4-1 8h6l2-5 5 1 1 5-5 5v6l5 7v3l-8 4h-3l-11-23-1-4v-7l5-7 9-5z" fill="#0C18BA"/>
<path transform="translate(235,647)" d="m0 0 5 1 3 5v2l-13 7-1 3h7l8-4h4l-2 5-5 5-1 4 7-3 3-3 5-1 4 3-1 5-14 11-5 4-5 2-9-1-2-1 1-5 9-12 1-3-7 1-11 3h-5l-2-2 1-4 6-8 15-10z" fill="#0C18BA"/>
<path transform="translate(596,707)" d="m0 0h5l5 13 6 13 1 8-7 5-12 5-9 5h-2l-6-17-8-16-1-3 7-5h5l7 19 3 4v2l8 1h3l-2-10-8-19 1-3z" fill="#0C18BA"/>
<path transform="translate(261,681)" d="m0 0h6l7 6 9 13-6 7-11 12-5 6-5-1-4-4 8-8v-5l-7-5-4 1 1 10-5 1-7-9 1-6 5-4 4-2 5 1 12 6 5-2-1-6-2-1h-6l-5 1-3-1-1-4 6-5z" fill="#0C18BA"/>
<path transform="translate(282,605)" d="m0 0 6 2 8 7 7 6-2 4-11 12-3 4 2 4 2 3v4l-6-1-8-6-6-7-2-5v-6l5-7 5-1 2 2v7l4-1 2-1v-5l-6-5h-7l-6 3h-5l-1-4 9-4z" fill="#FCFCFD"/>
<path transform="translate(649,567)" d="m0 0 8 1 6 4 5 6 1 10-2 9-4 6-8 7-8 3h-15l-10-4-9-8-3-6 2-4 4-1 8 7 9 6 9 1 8-3 7-6 3-6-1-9-4-6-6-3-1-3z" fill="#FCFCFD"/>
<path transform="translate(344,726)" d="m0 0h6l7 8 1 9-4 10-7 9-7 4-9-2-9-4-1-1 1-9 5-16 5-1 3 3v7l-2 6v6l5 1 7-9 2-5v-6l-5-2 1-7z" fill="#0C18BA"/>
<path transform="translate(561,594)" d="m0 0 7 1 3 3v4h12l4 2-1 5-5 2-9-1-8-1-4 2-5-1-6-3-3-3-5 4-8-1-6-4-4-1-2 4-7 4-3-1 7-8 6-5 5 1 8 6h2l1-2-6-2v-3l15 2 5 1z" fill="#FCFCFD"/>
<path transform="translate(255,565)" d="m0 0 3 1-1 11 2 1 2-4 5 1 8 18-10 4h-11l-6-3v-2h-2l-4-8 2-7 9-10z" fill="#FCFCFD"/>
<path transform="translate(428,822)" d="m0 0 5 2 7 9 2 1v2l8-2 5-5 4-5 3-2h4l-1 5-6 7h-2l-8 16-2 13h-3l-3-9-5-14-4-5-5-5-1-4z" fill="#FCFCFD"/>
<path transform="translate(561,479)" d="m0 0h10l8 4 10 9 3 7v5h-3l-5-9-8-7-5-2h-10l-12 7-4 5-3 7-3 12-4 3v-9l3-12 5-10 7-6z" fill="#FCFCFD"/>
<path transform="translate(645,641)" d="m0 0h5l10 10-2 4-10 6-8 7-4 8-2 6-5-2-1-1v-8l5-9h2l2-4 6-4-1-7 2-5z" fill="#0C18BA"/>
<path transform="translate(360,545)" d="m0 0 5 2 3 4-1 5-7 7h-3v2l6-1 11-6h3l1 3-1 3-7 4-4 4h-9l-3-3-6-15-1-8z" fill="#F3F3FA"/>
<path transform="translate(248,561)" d="m0 0 7 1-3 2-8 6-7 9v6l6 10 5 4 6 2 12-1 9-4 4 1 1 4-4 3-15 4h-7l-8-3-8-7-5-10v-12l6-9h2v-2z" fill="#FCFCFD"/>
<path transform="translate(410,514)" d="m0 0 7 6 6 9-1 4-2 2-2-1-2-4-1 10 1 4v7l-5 10-2-1 1-7-6-2-3-3 1-6 6-11 4-5z" fill="#FCFCFD"/>
<path transform="translate(491,432)" d="m0 0h8l7 4 6 7v4h-28l-5-3 1-5z" fill="#FCFCFD"/>
<path transform="translate(370,453)" d="m0 0 6 1v10l-5 8-9 4-10 1h-4l1-4 7-8 11-11z" fill="#FCFCFD"/>
<path transform="translate(606,469)" d="m0 0 8 1 8 7 1 7-4 4 5 2 1 5-5-1-5-5 1 3 7 9 1 7-2 1-5-4-6-7-3-6v-5l7-2v-3l-8-7-2-5z" fill="#FCFCFD"/>
<path transform="translate(389,553)" d="m0 0 8 1 2 2-1 5-2-3h-2l-1 2h2l1 3-5 11-3 2h-7l2-5v-3l-5 7-8 4-5-1v-4l9-5 4-4 6-3 3-8z" fill="#FCFCFD"/>
<path transform="translate(287,569)" d="m0 0 17 2 7 3 8 8-1 2h-23l-5-3-3-7z" fill="#FCFCFD"/>
<path transform="translate(489,549)" d="m0 0 4 2 10 8 2 4h15l5 2-1 9-4 5-6 1-1-3 6-4 2-3-10 3-6-1-4-8-8-6-4-7z" fill="#FCFCFD"/>
<path transform="translate(488,520)" d="m0 0 6 1 4 5 5 10 2 1v4h-5l-8-5 3 6v2l9 3 5 2 1 3-1 2-5-1-9-6-4-6-4-9v-11z" fill="#ECECF8"/>
<path transform="translate(607,526)" d="m0 0 6 5 3 6v7l-2 4h-2l-1 6-4 9-5-4-2-3v-6l3-5h6l-1-5-3-4v-7z" fill="#FCFCFD"/>
<path transform="translate(404,460)" d="m0 0 4 3 7 16v9l-5 1-9-7-2-10 3-9z" fill="#FCFCFD"/>
<path transform="translate(456,425)" d="m0 0h8v4l-7 12-9 6h-3l-1-2v-7l3-8 6-4z" fill="#FCFCFD"/>
<path transform="translate(360,423)" d="m0 0h8l10 5v3l-19 7-4 2v-4l2-1h-9v-3l7-6z" fill="#FCFCFD"/>
<path transform="translate(499,491)" d="m0 0 5 2 10 8 5 10-2 6-6-2-7-5-4-8-1-4z" fill="#FCFCFD"/>
<path transform="translate(591,433)" d="m0 0h9l6 4 2 2v6h-23l-6-1 1-4 9-6z" fill="#FCFCFD"/>
<path transform="translate(432,428)" d="m0 0 3 1v5l-3 6v8l3 1v-10l1-3 3 1v7l-3 9-5 1-1 2-4-1-3-6-1-7 4-8 4-5z" fill="#FBFBFC"/>
<path transform="translate(500,471)" d="m0 0 7 1 6 4 5 6 1 4v9l-5-1-11-10-3-5z" fill="#FCFCFD"/>
<path transform="translate(492,452)" d="m0 0 15 1 6 3 5 6 1 7-6-1-16-6-6-6z" fill="#FCFCFD"/>
<path transform="translate(298,469)" d="m0 0h6l1 3-4 5-10 8-10 2-6-1-1-4 22-12z" fill="#FCFCFD"/>
<path transform="translate(414,445)" d="m0 0 4 1 5 10 1 9-3 8-4-2-8-15 1-5z" fill="#FCFCFD"/>
<path transform="translate(563,491)" d="m0 0h7l6 3 5 6-1 3-10 4h-5l1-5 5-3h2v-3l-6-1-4 5-3 8-4-2-2-2v-5l7-7z" fill="#FCFCFD"/>
<path transform="translate(405,420)" d="m0 0h2l2 7 3 3-1 7-6 8-4 1-4-9 3-11z" fill="#FCFCFD"/>
<path transform="translate(466,560)" d="m0 0h1v6l4-1 2 1-1 7-7 6h-6l-6-7 2-4 7-6z" fill="#E8E9F7"/>
<path transform="translate(546,538)" d="m0 0 6 3 7 7 2 4-1 7-4 6-4-1-5-15z" fill="#FCFCFD"/>
<path transform="translate(345,527)" d="m0 0 16 2 6 6v5h-18l-3-1-2-7z" fill="#FCFCFD"/>
<path transform="translate(318,469)" d="m0 0h6l1 5-7 5h-2l-2 4h-2v2l6 1 4 3-1 3-11-3-5-5-2-1 1-4z" fill="#FCFCFD"/>
<path transform="translate(595,451)" d="m0 0 15 1 9 5 1 6h-9l-9-1-7-6-1-4z" fill="#FCFCFD"/>
<path transform="translate(589,610)" d="m0 0 5 1 9 7 1 5-5 1-2-1-1 4-6-2-6-5 1-5z" fill="#E8E9F7"/>
<path transform="translate(291,512)" d="m0 0h4l2 10 8 13 1 4-4 1-9-10-5-9v-2l-2-1z" fill="#FCFCFD"/>
<path transform="translate(538,560)" d="m0 0 5 3 4 6v3l-4-1-3-1-1 5-7 4-4-1 1-6 8-11z" fill="#FCFCFD"/>
<path transform="translate(539,421)" d="m0 0h4l-2 4-3 3-1 5 1 7-1 2-5 1-6-4v-5l10-11z" fill="#FCFCFD"/>
<path transform="translate(594,629)" d="m0 0 7 1 5 5-3 9-4 6-3 2-4-1-1-4 5-5 5-4-8-5z" fill="#FCFCFD"/>
<path transform="translate(490,808)" d="m0 0h3l-1 5-10 6-4 4-4 2-6-1 1-4 12-8 5-3z" fill="#FCFCFD"/>
<path transform="translate(429,811)" d="m0 0 6 2 1 3 5-4 11-1 1 4-7 4-5 1-2 3-5-2-5-6z" fill="#FCFCFD"/>
<path transform="translate(403,808)" d="m0 0 6 1 17 9-1 5-4 1-8-4-7-6-4-3z" fill="#FCFCFD"/>
<path transform="translate(608,507)" d="m0 0 4 1 5 4 5 10-1 7-3-1-8-10-2-8z" fill="#FCFCFD"/>
<path transform="translate(494,595)" d="m0 0h3l-1 5-2 3 2 2-1 7-3 1v-6l-4 2-4 3h-5l-1-2 5-5z" fill="#FCFCFD"/>
<path transform="translate(545,519)" d="m0 0h2l14 16 1 4-3 1-6-4-5-5-4-6v-5z" fill="#FCFCFD"/>
<path transform="translate(397,487)" d="m0 0 5 3 4 11v6l-1 2-4-2-5-9-1-9z" fill="#FCFCFD"/>
<path transform="translate(422,477)" d="m0 0 4 1 1 12 6 12-4 2-8-12-1-4v-8z" fill="#FCFCFD"/>
<path transform="translate(350,606)" d="m0 0h6v4l-11 6-6 2-5-1-1-4 10-4z" fill="#FCFCFD"/>
<path transform="translate(555,420)" d="m0 0 5 1-3 5-5 5-4 5-2 1h-6l1-4 10-11z" fill="#FCFCFD"/>
<path transform="translate(641,452)" d="m0 0 5 2 3 5 1 4v11l-2 4h-2l-5-22z" fill="#FCFCFD"/>
<path transform="translate(391,608)" d="m0 0h5l1 3-5 5-9 5-7 1 1-4 7-6z" fill="#FCFCFD"/>
<path transform="translate(438,366)" d="m0 0 1 4 3 5v4l-4 2-1 6-7-1-1-4 8-15z" fill="#0C18BA"/>
<path transform="translate(450,553)" d="m0 0h5l3 3-1 6-4 2-2 4-5-2-1-7z" fill="#FCFCFD"/>
<path transform="translate(502,518)" d="m0 0 6 1 5 5 1 2v8l-1 2-4-2-5-8-3-5z" fill="#FCFCFD"/>
<path transform="translate(414,609)" d="m0 0h3l-2 7-7 9-6 2-1-5 10-11z" fill="#FCFCFD"/>
<path transform="translate(470,598)" d="m0 0h2l-1 6-5 4-5 7-4 1-2-2 1-5 11-9z" fill="#FCFCFD"/>
<path transform="translate(513,594)" d="m0 0h5l-3 5-5 4-3 4h-6l-3-3 2-4 5-1z" fill="#FCFCFD"/>
<path transform="translate(549,503)" d="m0 0h3l5 12v4l-7-1-3-3v-8z" fill="#FCFCFD"/>
<path transform="translate(439,607)" d="m0 0 5 1-4 6-8 9-7 4h-2l2-4 9-10z" fill="#FCFCFD"/>
<path transform="translate(427,609)" d="m0 0 3 1-4 6-10 11-3 1v-6l4-5z" fill="#FCFCFD"/>
<path transform="translate(596,559)" d="m0 0 4 2 3 5 1 8-5 1-4-9v-6z" fill="#FCFCFD"/>
<path transform="translate(452,605)" d="m0 0 1 3-9 14-4 2v-6l5-8z" fill="#FCFCFD"/>
<path transform="translate(476,601)" d="m0 0h5l-1 5-8 7-3 3h-5v-3l6-4z" fill="#FCFCFD"/>
<path transform="translate(381,433)" d="m0 0 5 1-2 4-8 6-1 1h-5l1-5 7-4z" fill="#FCFCFD"/>
<path transform="translate(459,812)" d="m0 0h5l-1 5-5 5h-6l1-5 4-2z" fill="#FCFCFD"/>
<path transform="translate(487,494)" d="m0 0 2 1 5 12 2 4v3l-4-1-5-9z" fill="#FCFCFD"/>
<path transform="translate(494,544)" d="m0 0 5 1 10 4 1 3-1 2-5-1-9-6z" fill="#FCFCFD"/>
<path transform="translate(438,505)" d="m0 0 5 1-1 4-5 5-5 1v-4z" fill="#FCFCFD"/>
<path transform="translate(452,342)" d="m0 0 3 1v3l-2 1-1 9-4-1-2-4 1-5 4-1z" fill="#FCFCFD"/>
<path transform="translate(441,824)" d="m0 0h10l-1 5-2 2h-5l-3-3z" fill="#FCFCFD"/>
<path transform="translate(523,437)" d="m0 0 1 2 1 10-4 1-2-2-1-9z" fill="#FCFCFD"/>
<path transform="translate(304,505)" d="m0 0 5 2 3 1-1 5-3 6-3 1 2-12-5-1z" fill="#0C18BA"/>
<path transform="translate(445,357)" d="m0 0 5 2 2 2-1 7-4-1-2-3z" fill="#FCFCFD"/>
<path transform="translate(290,683)" d="m0 0 3 1v6l-1 1h-6l-1-4z" fill="#FCFCFD"/>
<path transform="translate(417,495)" d="m0 0 4 2 5 8v2l-5-2-4-5z" fill="#FCFCFD"/>
<path transform="translate(345,514)" d="m0 0 9 1 4 3v2l-7-1-6-2z" fill="#0C18BA"/>
<path transform="translate(561,600)" d="m0 0 5 1 1 2-5 2-4 3-3-1z" fill="#0C18BA"/>
<path transform="translate(409,543)" d="m0 0 4 4 1 5h-4l-2-5z" fill="#0C18BA"/>
<path transform="translate(322,596)" d="m0 0 3 1v3l-11 2-1-2z" fill="#0C18BA"/>
<path transform="translate(490,477)" d="m0 0h3l1 2v7l-3-1z" fill="#FCFCFD"/>
</svg>
